<svg width="44" height="58" viewBox="0 0 44 58" fill="none" xmlns="http://www.w3.org/2000/svg">
<mask id="mask0_4999_169213" style="mask-type:luminance" maskUnits="userSpaceOnUse" x="9" y="8" width="9" height="10">
<path d="M17.678 8.58826H9.09753V17.1766H17.678V8.58826Z" fill="white"/>
</mask>
<g mask="url(#mask0_4999_169213)">
<path d="M13.3894 4.3009L4.80652 12.8838L13.3894 21.4667L21.9723 12.8838L13.3894 4.3009Z" fill="url(#paint0_linear_4999_169213)"/>
</g>
<mask id="mask1_4999_169213" style="mask-type:luminance" maskUnits="userSpaceOnUse" x="0" y="17" width="27" height="26">
<path d="M0.516968 17.1766V34.3454H9.09745V42.9337H26.2662V34.3454H17.6858V25.7649H9.09745V17.1766H0.516968Z" fill="white"/>
</mask>
<g mask="url(#mask1_4999_169213)">
<path d="M13.3946 4.29505L-12.3651 30.0548L13.3946 55.8146L39.1544 30.0548L13.3946 4.29505Z" fill="url(#paint1_linear_4999_169213)"/>
</g>
<mask id="mask2_4999_169213" style="mask-type:luminance" maskUnits="userSpaceOnUse" x="26" y="25" width="9" height="10">
<path d="M34.8546 25.7648H26.2662V34.3531H34.8546V25.7648Z" fill="white"/>
</mask>
<g mask="url(#mask2_4999_169213)">
<path d="M30.5656 21.4697L21.9772 30.0581L30.5656 38.6465L39.154 30.0581L30.5656 21.4697Z" fill="url(#paint2_linear_4999_169213)"/>
</g>
<mask id="mask3_4999_169213" style="mask-type:luminance" maskUnits="userSpaceOnUse" x="17" y="0" width="27" height="26">
<path d="M17.6858 0.00762939V8.5881H26.2663V17.1764H34.8546V25.7647H43.4429V8.5881H34.8546V0.00762939H17.6858Z" fill="white"/>
</mask>
<g mask="url(#mask3_4999_169213)">
<path d="M30.5635 -12.8781L4.80371 12.8817L30.5635 38.6414L56.3232 12.8817L30.5635 -12.8781Z" fill="url(#paint3_linear_4999_169213)"/>
</g>
<mask id="mask4_4999_169213" style="mask-type:luminance" maskUnits="userSpaceOnUse" x="0" y="0" width="10" height="9">
<path d="M9.10527 0H0.516968V8.58831H9.10527V0Z" fill="white"/>
</mask>
<g mask="url(#mask4_4999_169213)">
<path d="M4.8178 -4.2929L-3.77063 4.29553L4.8178 12.884L13.4062 4.29553L4.8178 -4.2929Z" fill="url(#paint4_linear_4999_169213)"/>
</g>
<mask id="mask5_4999_169213" style="mask-type:luminance" maskUnits="userSpaceOnUse" x="34" y="34" width="10" height="9">
<path d="M43.4429 34.3451H34.8546V42.9334H43.4429V34.3451Z" fill="white"/>
</mask>
<g mask="url(#mask5_4999_169213)">
<path d="M39.1537 30.0577L30.5653 38.6462L39.1537 47.2346L47.7422 38.6462L39.1537 30.0577Z" fill="url(#paint5_linear_4999_169213)"/>
</g>
<path d="M5.21881 57.3755V54.2724H1.44967V57.3755H0V49.6962H1.44967V52.9325H5.21881V49.6962H6.66064V57.3755H5.21881Z" fill="#21409A"/>
<path d="M9.05832 55.1343C9.12897 55.4964 9.33569 55.8176 9.63596 56.0319C9.93623 56.2461 10.3072 56.3372 10.6725 56.2862C11.1998 56.2955 11.7134 56.1178 12.1222 55.7847L12.9763 56.631C12.3376 57.2196 11.4937 57.5346 10.6255 57.5087C9.86697 57.5222 9.13412 57.2338 8.58818 56.7069C8.04224 56.1801 7.72795 55.458 7.71444 54.6994C7.70093 53.9409 7.98932 53.208 8.51615 52.6621C9.04298 52.1161 9.7651 51.8018 10.5237 51.7883C12.3338 51.7883 13.4622 52.9089 13.2585 55.1343H9.03482H9.05832ZM11.9968 54.0216C11.9738 53.8605 11.9192 53.7055 11.8362 53.5656C11.7532 53.4256 11.6435 53.3033 11.5132 53.2058C11.3829 53.1083 11.2347 53.0374 11.077 52.9972C10.9193 52.957 10.7552 52.9483 10.5942 52.9716C10.2598 52.9459 9.92672 53.0363 9.65122 53.2276C9.37571 53.4189 9.17461 53.6993 9.08183 54.0216H12.0047H11.9968Z" fill="#21409A"/>
<path d="M18.6105 51.9529H19.8956V57.3598H18.634L18.5713 56.5762C18.3844 56.8719 18.1251 57.1149 17.8179 57.2822C17.5107 57.4495 17.1658 57.5356 16.8161 57.5322C16.0596 57.5322 15.3341 57.2317 14.7992 56.6968C14.2643 56.1619 13.9637 55.4364 13.9637 54.6799C13.9637 53.9234 14.2643 53.1979 14.7992 52.663C15.3341 52.1281 16.0596 51.8276 16.8161 51.8276C17.1543 51.8152 17.4902 51.8893 17.7918 52.0429C18.0935 52.1964 18.351 52.4244 18.54 52.7052L18.6105 51.9529ZM15.3586 54.6564C15.3479 54.8687 15.3806 55.0809 15.4546 55.2802C15.5286 55.4795 15.6423 55.6616 15.7889 55.8156C15.9355 55.9695 16.1119 56.092 16.3074 56.1756C16.5028 56.2592 16.7132 56.3022 16.9258 56.302C19.0337 56.302 19.0337 53.0186 16.9258 53.0186C16.7139 53.0184 16.5042 53.0612 16.3093 53.1443C16.1144 53.2274 15.9384 53.3492 15.7919 53.5023C15.6454 53.6554 15.5315 53.8366 15.457 54.035C15.3825 54.2333 15.349 54.4447 15.3586 54.6564Z" fill="#21409A"/>
<path d="M22.3483 49.6962H21.024V57.3677H22.3483V49.6962Z" fill="#21409A"/>
<path d="M25.4122 50.4327V51.9999H26.901V53.0892H25.3965V55.44C25.3798 55.5399 25.3859 55.6423 25.4143 55.7396C25.4426 55.8368 25.4926 55.9264 25.5603 56.0017C25.6281 56.077 25.712 56.1361 25.8057 56.1745C25.8995 56.2129 26.0006 56.2297 26.1018 56.2236C26.3279 56.2163 26.5498 56.1602 26.7522 56.059L27.1283 57.2031C26.7777 57.3482 26.4028 57.4253 26.0234 57.4303C25.7576 57.4629 25.488 57.4339 25.2352 57.3457C24.9824 57.2575 24.7532 57.1124 24.5654 56.9216C24.3776 56.7307 24.2362 56.4993 24.1521 56.2451C24.0679 55.991 24.0433 55.7209 24.0801 55.4557V53.1048H23.0692V51.9529H24.0801V50.5581L25.4122 50.4327Z" fill="#21409A"/>
<path d="M29.2363 49.6805V52.6896C29.4334 52.4312 29.6906 52.2247 29.9856 52.0882C30.2805 51.9516 30.6043 51.8891 30.9289 51.906C32.4961 51.906 33.1465 52.9482 33.1465 54.5389V57.3912H31.8065V54.5467C31.8386 54.3702 31.8304 54.1888 31.7826 54.0159C31.7347 53.843 31.6484 53.6832 31.5301 53.5483C31.4118 53.4135 31.2646 53.3071 31.0995 53.2371C30.9343 53.1671 30.7554 53.1353 30.5763 53.1441C30.3899 53.15 30.2067 53.1934 30.0375 53.2717C29.8683 53.35 29.7166 53.4616 29.5916 53.5998C29.4665 53.7381 29.3706 53.9001 29.3095 54.0763C29.2485 54.2524 29.2236 54.4391 29.2363 54.6251V57.3912H27.8964V49.7119H29.2363V49.6805Z" fill="#21409A"/>
<path d="M35.6461 50.9106H34.4393V57.3675H35.6461V50.9106Z" fill="#00A79D"/>
<path d="M42.4713 54.0843C42.5045 54.5192 42.4442 54.9562 42.2945 55.3659C42.1447 55.7757 41.909 56.1486 41.6032 56.4596C41.2974 56.7706 40.9285 57.0126 40.5214 57.1692C40.1143 57.3258 39.6783 57.3935 39.2429 57.3676H36.704V50.9107H39.2429C39.6654 50.8855 40.0886 50.9485 40.4854 51.0959C40.8823 51.2432 41.2441 51.4716 41.5478 51.7665C41.8515 52.0613 42.0905 52.4162 42.2495 52.8085C42.4085 53.2009 42.484 53.622 42.4713 54.0451M37.9107 56.2235H39.235C39.7607 56.1911 40.2542 55.9595 40.6149 55.5758C40.9756 55.1922 41.1765 54.6854 41.1765 54.1587C41.1765 53.6321 40.9756 53.1253 40.6149 52.7416C40.2542 52.358 39.7607 52.1263 39.235 52.0939H37.9107V56.2235Z" fill="#00A79D"/>
<defs>
<linearGradient id="paint0_linear_4999_169213" x1="-5.86164" y1="31.0395" x2="27.4615" y2="-2.2836" gradientUnits="userSpaceOnUse">
<stop stop-color="#21409A"/>
<stop offset="1" stop-color="#00A79D"/>
</linearGradient>
<linearGradient id="paint1_linear_4999_169213" x1="2.72094" y1="39.6221" x2="36.0441" y2="6.29898" gradientUnits="userSpaceOnUse">
<stop stop-color="#21409A"/>
<stop offset="1" stop-color="#00A79D"/>
</linearGradient>
<linearGradient id="paint2_linear_4999_169213" x1="11.309" y1="48.2028" x2="44.6321" y2="14.8796" gradientUnits="userSpaceOnUse">
<stop stop-color="#21409A"/>
<stop offset="1" stop-color="#00A79D"/>
</linearGradient>
<linearGradient id="paint3_linear_4999_169213" x1="2.71844" y1="39.6203" x2="36.0416" y2="6.29715" gradientUnits="userSpaceOnUse">
<stop stop-color="#21409A"/>
<stop offset="1" stop-color="#00A79D"/>
</linearGradient>
<linearGradient id="paint4_linear_4999_169213" x1="-14.4554" y1="22.4568" x2="18.8677" y2="-10.8663" gradientUnits="userSpaceOnUse">
<stop stop-color="#21409A"/>
<stop offset="1" stop-color="#00A79D"/>
</linearGradient>
<linearGradient id="paint5_linear_4999_169213" x1="19.8971" y1="56.7908" x2="53.2203" y2="23.4677" gradientUnits="userSpaceOnUse">
<stop stop-color="#21409A"/>
<stop offset="1" stop-color="#00A79D"/>
</linearGradient>
</defs>
</svg>
