<svg width="327" height="74" viewBox="0 0 327 74" fill="none" xmlns="http://www.w3.org/2000/svg">
<mask id="mask0_4168_158738" style="mask-type:luminance" maskUnits="userSpaceOnUse" x="15" y="15" width="15" height="15">
<path d="M29.9199 15.0037H15.3442V29.5927H29.9199V15.0037Z" fill="white"/>
</mask>
<g mask="url(#mask0_4168_158738)">
<path d="M22.6345 7.72022L8.05469 22.3L22.6345 36.8799L37.2144 22.3001L22.6345 7.72022Z" fill="url(#paint0_linear_4168_158738)"/>
</g>
<mask id="mask1_4168_158738" style="mask-type:luminance" maskUnits="userSpaceOnUse" x="0" y="29" width="45" height="45">
<path d="M0.768066 29.5928V58.7575H15.3438V73.3466H44.5086V58.7575H29.9328V44.1818H15.3438V29.5928H0.768066Z" fill="white"/>
</mask>
<g mask="url(#mask1_4168_158738)">
<path d="M22.6436 7.71067L-21.1147 51.469L22.6436 95.2273L66.4019 51.469L22.6436 7.71067Z" fill="url(#paint1_linear_4168_158738)"/>
</g>
<mask id="mask2_4168_158738" style="mask-type:luminance" maskUnits="userSpaceOnUse" x="44" y="44" width="16" height="15">
<path d="M59.0979 44.1819H44.5088V58.7709H59.0979V44.1819Z" fill="white"/>
</mask>
<g mask="url(#mask2_4168_158738)">
<path d="M51.8119 36.8856L37.2227 51.4749L51.8119 66.0641L66.4012 51.4749L51.8119 36.8856Z" fill="url(#paint2_linear_4168_158738)"/>
</g>
<mask id="mask3_4168_158738" style="mask-type:luminance" maskUnits="userSpaceOnUse" x="29" y="0" width="45" height="45">
<path d="M29.9331 0.427979V15.0037H44.5088V29.5928H59.0979V44.1818H73.6869V15.0037H59.0979V0.427979H29.9331Z" fill="white"/>
</mask>
<g mask="url(#mask3_4168_158738)">
<path d="M51.8081 -21.461L8.0498 22.2974L51.8081 66.0557L95.5665 22.2974L51.8081 -21.461Z" fill="url(#paint3_linear_4168_158738)"/>
</g>
<mask id="mask4_4168_158738" style="mask-type:luminance" maskUnits="userSpaceOnUse" x="0" y="0" width="16" height="16">
<path d="M15.3571 0.414551H0.768066V15.0036H15.3571V0.414551Z" fill="white"/>
</mask>
<g mask="url(#mask4_4168_158738)">
<path d="M8.07363 -6.87782L-6.51562 7.71143L8.07363 22.3007L22.6629 7.71143L8.07363 -6.87782Z" fill="url(#paint4_linear_4168_158738)"/>
</g>
<mask id="mask5_4168_158738" style="mask-type:luminance" maskUnits="userSpaceOnUse" x="59" y="58" width="15" height="16">
<path d="M73.6862 58.7573H59.0972V73.3464H73.6862V58.7573Z" fill="white"/>
</mask>
<g mask="url(#mask5_4168_158738)">
<path d="M66.4003 51.4745L51.811 66.0637L66.4003 80.653L80.9895 66.0637L66.4003 51.4745Z" fill="url(#paint5_linear_4168_158738)"/>
</g>
<path d="M126.943 55.0436V38.42H106.751V55.0436H98.9854V13.9045H106.751V31.2417H126.943V13.9045H134.667V55.0436H126.943Z" fill="#21409A"/>
<path d="M147.512 43.0384C147.891 44.978 148.998 46.6988 150.607 47.8467C152.215 48.9946 154.203 49.4823 156.16 49.2095C158.985 49.2589 161.736 48.3072 163.926 46.5227L168.502 51.0566C165.08 54.2098 160.559 55.8976 155.908 55.7584C151.844 55.8307 147.918 54.2858 144.993 51.4634C142.069 48.6409 140.385 44.7723 140.312 40.7084C140.24 36.6446 141.785 32.7184 144.607 29.7937C147.43 26.8689 151.299 25.1852 155.362 25.1128C165.06 25.1128 171.105 31.116 170.014 43.0384H147.386H147.512ZM163.255 37.0772C163.131 36.2142 162.839 35.3839 162.394 34.634C161.95 33.8841 161.361 33.2291 160.664 32.7067C159.966 32.1842 159.172 31.8044 158.327 31.5891C157.482 31.3738 156.603 31.3272 155.74 31.4518C153.949 31.3141 152.164 31.7985 150.688 32.8232C149.212 33.848 148.135 35.3505 147.638 37.0772H163.297H163.255Z" fill="#21409A"/>
<path d="M198.686 25.9945H205.571V54.9608H198.812L198.476 50.7628C197.475 52.3469 196.085 53.6489 194.439 54.5452C192.794 55.4416 190.946 55.9025 189.072 55.8844C185.02 55.8844 181.133 54.2745 178.267 51.4087C175.401 48.543 173.792 44.6563 173.792 40.6036C173.792 36.5509 175.401 32.6642 178.267 29.7984C181.133 26.9327 185.02 25.3228 189.072 25.3228C190.884 25.2565 192.684 25.6535 194.3 26.4762C195.916 27.2989 197.295 28.5202 198.308 30.0246L198.686 25.9945ZM181.264 40.4777C181.207 41.6151 181.382 42.7521 181.778 43.8198C182.175 44.8874 182.784 45.8632 183.57 46.6878C184.355 47.5125 185.3 48.1688 186.347 48.6167C187.394 49.0647 188.521 49.295 189.66 49.2935C200.953 49.2935 200.953 31.7038 189.66 31.7038C188.525 31.7027 187.401 31.9317 186.357 32.377C185.313 32.8224 184.37 33.4749 183.585 34.295C182.801 35.1151 182.19 36.0858 181.791 37.1485C181.392 38.2112 181.213 39.3437 181.264 40.4777Z" fill="#21409A"/>
<path d="M218.709 13.9045H211.614V55.0016H218.709V13.9045Z" fill="#21409A"/>
<path d="M235.122 17.8503V26.2464H243.098V32.0816H235.038V44.6757C234.949 45.211 234.981 45.7596 235.133 46.2806C235.285 46.8017 235.552 47.2817 235.916 47.6851C236.279 48.0885 236.728 48.4048 237.23 48.6106C237.732 48.8164 238.274 48.9064 238.816 48.8737C240.028 48.8348 241.216 48.534 242.301 47.9921L244.316 54.1212C242.437 54.8985 240.429 55.3116 238.396 55.3386C236.973 55.5131 235.528 55.358 234.174 54.8854C232.819 54.4128 231.592 53.6354 230.586 52.613C229.58 51.5907 228.822 50.3508 228.371 48.9891C227.92 47.6275 227.788 46.1804 227.985 44.7597V32.1656H222.57V25.9945H227.985V18.522L235.122 17.8503Z" fill="#21409A"/>
<path d="M255.608 13.8208V29.9406C256.664 28.5562 258.042 27.4503 259.622 26.7188C261.202 25.9873 262.937 25.6523 264.675 25.7428C273.071 25.7428 276.555 31.3259 276.555 39.8476V55.1278H269.377V39.8895C269.549 38.9441 269.505 37.972 269.248 37.0458C268.992 36.1197 268.53 35.2635 267.896 34.541C267.262 33.8185 266.474 33.2485 265.589 32.8735C264.704 32.4986 263.746 32.3283 262.786 32.3754C261.788 32.4069 260.806 32.6394 259.9 33.0589C258.994 33.4783 258.181 34.0762 257.511 34.8168C256.841 35.5574 256.327 36.4255 256 37.3693C255.673 38.313 255.54 39.3129 255.608 40.3093V55.1278H248.43V13.9888H255.608V13.8208Z" fill="#21409A"/>
<path d="M289.946 20.4109H283.481V55.0026H289.946V20.4109Z" fill="#00A79D"/>
<path d="M326.51 37.4133C326.688 39.7435 326.365 42.0846 325.562 44.2796C324.76 46.4745 323.498 48.4723 321.859 50.1386C320.221 51.8049 318.244 53.1011 316.063 53.9401C313.882 54.7792 311.547 55.1416 309.214 55.003H295.612V20.4113H309.214C311.478 20.2762 313.745 20.6141 315.871 21.4034C317.997 22.1928 319.935 23.4163 321.562 24.996C323.189 26.5757 324.47 28.477 325.321 30.5787C326.173 32.6805 326.578 34.9366 326.51 37.2034M302.077 48.8739H309.172C311.988 48.7003 314.632 47.4594 316.564 45.404C318.497 43.3485 319.573 40.6335 319.573 37.8121C319.573 34.9908 318.497 32.2757 316.564 30.2203C314.632 28.1649 311.988 26.9239 309.172 26.7503H302.077V48.8739Z" fill="#00A79D"/>
<defs>
<linearGradient id="paint0_linear_4168_158738" x1="-10.0674" y1="53.1413" x2="46.5388" y2="-3.46493" gradientUnits="userSpaceOnUse">
<stop stop-color="#21409A"/>
<stop offset="1" stop-color="#00A79D"/>
</linearGradient>
<linearGradient id="paint1_linear_4168_158738" x1="4.51207" y1="67.721" x2="61.1183" y2="11.1148" gradientUnits="userSpaceOnUse">
<stop stop-color="#21409A"/>
<stop offset="1" stop-color="#00A79D"/>
</linearGradient>
<linearGradient id="paint2_linear_4168_158738" x1="19.1005" y1="82.2973" x2="75.7068" y2="25.691" gradientUnits="userSpaceOnUse">
<stop stop-color="#21409A"/>
<stop offset="1" stop-color="#00A79D"/>
</linearGradient>
<linearGradient id="paint3_linear_4168_158738" x1="4.50753" y1="67.7185" x2="61.1138" y2="11.1122" gradientUnits="userSpaceOnUse">
<stop stop-color="#21409A"/>
<stop offset="1" stop-color="#00A79D"/>
</linearGradient>
<linearGradient id="paint4_linear_4168_158738" x1="-24.666" y1="38.5621" x2="31.9403" y2="-18.0442" gradientUnits="userSpaceOnUse">
<stop stop-color="#21409A"/>
<stop offset="1" stop-color="#00A79D"/>
</linearGradient>
<linearGradient id="paint5_linear_4168_158738" x1="33.6889" y1="96.8862" x2="90.2952" y2="40.2799" gradientUnits="userSpaceOnUse">
<stop stop-color="#21409A"/>
<stop offset="1" stop-color="#00A79D"/>
</linearGradient>
</defs>
</svg>
